<svg viewBox="0 0 24 24" fill="none" xmlns="http://www.w3.org/2000/svg">
  <path d="M21.5 10.5L13.5 2.5C12.7 1.7 11.3 1.7 10.5 2.5L2.5 10.5C1.7 11.3 1.7 12.7 2.5 13.5L10.5 21.5C11.3 22.3 12.7 22.3 13.5 21.5L21.5 13.5C22.3 12.7 22.3 11.3 21.5 10.5ZM10 14.5C9.2 14.5 8.5 13.8 8.5 13C8.5 12.2 9.2 11.5 10 11.5C10.8 11.5 11.5 12.2 11.5 13C11.5 13.8 10.8 14.5 10 14.5ZM10 9.5C9.2 9.5 8.5 8.8 8.5 8C8.5 7.2 9.2 6.5 10 6.5C10.8 6.5 11.5 7.2 11.5 8C11.5 8.8 10.8 9.5 10 9.5ZM15 14.5C14.2 14.5 13.5 13.8 13.5 13C13.5 12.2 14.2 11.5 15 11.5C15.8 11.5 16.5 12.2 16.5 13C16.5 13.8 15.8 14.5 15 14.5Z" fill="#F1502F"/>
</svg>
